<?xml version="1.0" standalone="no"?>
<!DOCTYPE svg PUBLIC "-//W3C//DTD SVG 20010904//EN"
 "http://www.w3.org/TR/2001/REC-SVG-20010904/DTD/svg10.dtd">
<svg version="1.0" xmlns="http://www.w3.org/2000/svg"
 width="256.000000pt" height="176.000000pt" viewBox="0 0 256.000000 176.000000"
 preserveAspectRatio="xMidYMid meet">

<g transform="translate(0.000000,176.000000) scale(0.100000,-0.100000)"
fill="#020f14" stroke="none">
<path d="M0 1690 l0 -69 25 24 c13 14 35 25 48 25 14 0 71 -22 128 -49 57 -27
147 -61 199 -76 52 -14 101 -28 108 -31 9 -3 -13 -33 -62 -85 -42 -45 -106
-121 -143 -170 -36 -49 -70 -89 -75 -89 -23 0 -163 219 -204 317 l-24 58 0
-772 0 -773 182 0 c148 0 179 2 165 13 -58 43 -99 256 -63 326 15 27 22 32 49
29 29 -3 39 -16 135 -171 57 -93 102 -171 99 -173 -2 -3 -24 -8 -48 -13 -26
-5 283 -9 761 -9 478 0 787 4 761 9 -24 5 -46 10 -48 13 -3 2 42 80 99 173 96
155 106 168 135 171 27 3 34 -2 49 -29 36 -70 -5 -283 -63 -326 -14 -11 17
-13 165 -13 l182 0 0 773 0 772 -24 -58 c-41 -98 -181 -317 -204 -317 -5 0
-39 40 -75 89 -37 49 -101 125 -143 170 -49 52 -71 82 -62 85 7 3 56 17 108
31 52 15 142 49 199 76 57 27 114 49 128 49 13 0 35 -11 48 -25 l25 -24 0 69
0 70 -592 -1 c-513 -1 -582 -3 -513 -13 98 -16 195 -43 195 -56 0 -5 -5 -12
-11 -16 -18 -11 -109 -155 -135 -213 -14 -30 -36 -100 -50 -155 -49 -193 -86
-246 -174 -246 -88 0 -125 53 -174 246 -14 55 -36 125 -50 155 -26 58 -117
202 -135 213 -6 4 -11 11 -11 16 0 13 97 40 195 56 69 10 0 12 -512 13 l-593
1 0 -70z m924 -677 l150 -88 27 -90 c15 -49 28 -102 28 -116 1 -29 -18 -42
-40 -28 -23 15 -26 11 -32 -40 -18 -149 -140 -255 -292 -255 -117 1 -211 62
-263 173 -21 46 -24 63 -20 130 6 94 29 142 98 204 l51 46 -50 26 c-78 39 -72
59 36 117 l87 46 36 -18 c19 -11 102 -59 184 -107z m1106 10 c0 -17 -12 -29
-51 -48 l-50 -26 51 -46 c69 -62 92 -110 98 -204 4 -67 1 -84 -20 -130 -52
-111 -146 -172 -263 -173 -152 0 -274 106 -292 255 -6 51 -9 55 -32 40 -22
-14 -41 -1 -40 28 0 14 13 67 28 116 l27 90 184 107 183 107 89 -47 c70 -37
88 -52 88 -69z m-1347 -850 l83 -98 -65 -17 c-36 -10 -72 -19 -80 -21 -8 -1
-28 17 -45 40 -23 33 -31 57 -34 103 -5 73 1 90 32 90 19 0 45 -23 109 -97z
m1332 20 c0 -64 -3 -76 -31 -115 -17 -23 -37 -42 -45 -41 -8 2 -44 11 -80 21
l-65 17 84 98 c72 84 88 98 111 95 25 -3 26 -5 26 -75z"/>
<path d="M669 867 c-24 -13 -57 -43 -74 -66 -27 -38 -30 -51 -30 -116 0 -65 3
-78 30 -116 114 -163 360 -99 381 98 3 30 0 57 -8 72 -12 23 -218 150 -244
151 -6 0 -31 -10 -55 -23z m198 -95 c19 -12 31 -55 22 -80 -5 -12 -20 -27 -34
-34 -51 -23 -103 28 -83 82 11 30 25 40 58 40 14 0 30 -4 37 -8z m-69 -164
c17 -17 15 -43 -4 -59 -31 -26 -70 25 -44 56 15 18 32 19 48 3z"/>
<path d="M1715 827 c-64 -37 -115 -73 -123 -88 -8 -15 -11 -42 -8 -72 21 -197
267 -261 380 -99 63 90 40 222 -50 284 -66 46 -77 44 -199 -25z m52 -55 c19
-12 31 -55 22 -80 -5 -12 -20 -27 -34 -34 -51 -23 -103 28 -83 82 11 30 25 40
58 40 14 0 30 -4 37 -8z m41 -164 c17 -17 15 -43 -4 -59 -31 -26 -70 25 -44
56 15 18 32 19 48 3z"/>
</g>
</svg>
