<?xml version="1.0" encoding="utf-8"?>
<!-- Generator: Adobe Illustrator 24.0.2, SVG Export Plug-In . SVG Version: 6.00 Build 0)  -->
<svg version="1.1" id="Capa_1" xmlns="http://www.w3.org/2000/svg" xmlns:xlink="http://www.w3.org/1999/xlink" x="0px" y="0px"
	 viewBox="0 0 1267.96 1500" style="enable-background:new 0 0 1267.96 1500;" xml:space="preserve">
<style type="text/css">
	.st0{display:none;}
	.st1{display:inline;}
</style>
<g id="ICON">
	<g class="st0">
		<path class="st1" d="M635,0c368.88,0,550.27,432.07,550.27,750c0,315.9-181.39,750-550.27,750c-372.96,0-552.31-430.03-552.31-750
			C82.69,427.99,264.07,0,635,0z M708.37,1459.24c242.53-26.49,297.55-474.86,269.02-745.92C948.86,442.25,800.08,16.3,561.63,42.8
			C319.1,67.26,262.04,511.55,290.57,784.65C321.14,1057.75,467.88,1483.7,708.37,1459.24z"/>
	</g>
	<g>
		<path d="M635.15,0c424.22,0,632.81,432.07,632.81,750c0,315.9-208.59,750-632.81,750C206.25,1500,0,1069.97,0,750
			C0,427.99,208.59,0,635.15,0z M719.53,1459.24c278.91-26.49,342.18-474.86,309.37-745.92C996.09,442.26,825,16.3,550.78,42.8
			c-278.9,24.46-344.53,468.75-311.72,741.85C274.22,1057.74,442.97,1483.7,719.53,1459.24z"/>
	</g>
	<path d="M834.43,754.04c-141.37,42.41-169.27,82.9-196.44,297.36c-0.62,4.88-7.4,4.88-8.02,0
		C602.8,836.94,574.9,796.45,433.53,754.04c-3.9-1.17-3.9-6.91,0-8.08c141.37-42.41,169.27-82.9,196.44-297.36
		c0.62-4.88,7.4-4.88,8.02,0c27.17,214.46,55.08,254.96,196.44,297.36C838.33,747.13,838.33,752.87,834.43,754.04z"/>
</g>
</svg>
