<?xml version="1.0" encoding="utf-8"?>
<!-- Generator: Adobe Illustrator 24.0.2, SVG Export Plug-In . SVG Version: 6.00 Build 0)  -->
<svg version="1.1" id="Capa_1" xmlns="http://www.w3.org/2000/svg" xmlns:xlink="http://www.w3.org/1999/xlink" x="0px" y="0px"
	 viewBox="0 0 1500 490.97" style="enable-background:new 0 0 1500 490.97;" xml:space="preserve">
<style type="text/css">
	.st0{display:none;}
	.st1{display:inline;}
</style>
<g id="LOGO">
	<g class="st0">
		<path class="st1" d="M163.12,0c108.95,0,162.52,110.97,162.52,192.62c0,81.13-53.57,192.62-162.52,192.62
			C52.97,385.24,0,274.8,0,192.62C0,109.92,53.57,0,163.12,0z M184.79,374.77c71.63-6.8,87.88-121.96,79.45-191.57
			c-8.43-69.62-52.37-179.01-122.79-172.21C69.82,17.27,52.97,131.38,61.4,201.52C70.43,271.66,113.77,381.05,184.79,374.77z"/>
	</g>
	<g>
		<path d="M163.12,0c108.95,0,162.52,110.97,162.52,192.62c0,81.13-53.57,192.62-162.52,192.62C52.97,385.24,0,274.8,0,192.62
			C0,109.92,53.57,0,163.12,0z M184.79,374.77c71.63-6.8,87.88-121.96,79.46-191.57c-8.43-69.62-52.37-179.01-122.79-172.21
			C69.82,17.27,52.97,131.38,61.4,201.52C70.43,271.66,113.76,381.05,184.79,374.77z"/>
		<path d="M394.86,183.2c0-30.88-10.83-37.69-25.28-41.87c-10.23-3.14-10.23-7.33,0-10.47l85.47-26.17v34.02
			c16.85-22.51,40.33-34.02,67.42-34.02c38.52,0,70.43,15.18,86.68,33.5l-19.26,55.48c-1.81,6.28-12.04,4.71-12.64-1.05
			c-6.02-45.54-22.27-77.47-54.78-77.47c-23.48,0-48.15,10.99-67.42,46.06v162.26c0,30.88,10.83,37.69,25.28,41.87
			c6.62,2.09,7.83,1.57,7.83,6.8c0,4.19-1.81,3.66-7.83,3.66H369.58c-6.02,0-7.83,0.52-7.83-3.66c0-5.23,1.2-4.71,7.83-6.8
			c14.45-4.19,25.28-10.99,25.28-41.87V183.2z" />
		<path d="M862.55,166.45c12.64-30.88,4.82-38.21-20.47-42.4c-6.02-1.05-7.22-1.05-4.82-6.28c1.2-4.19,3.01-3.66,9.03-3.66h74.64
			c6.02,0,7.82-0.52,6.62,3.66c-2.41,5.23-3.61,4.71-10.84,6.8c-15.65,4.19-28.89,10.47-41.53,39.78l-88.48,220.88
			c-25.28,69.62-68.02,105.73-154.09,105.73l0.6-57.58c0-5.76,7.82-5.23,12.04,0c12.04,15.18,28.89,23.55,46.95,23.55
			c29.49,0,62.6-21.98,82.46-71.71l-88.48-220.88c-12.64-29.31-25.88-35.59-41.53-39.78c-7.22-2.09-8.43-1.57-10.83-6.8
			c-1.2-4.19,0.6-3.66,6.62-3.66h122.79c6.02,0,7.82-0.52,9.03,3.66c2.41,5.23,1.2,5.23-4.82,6.28
			c-25.28,4.19-33.11,11.52-20.47,42.4l-1.2-3.14l58.99,147.08l58.99-147.08L862.55,166.45z" />
		<path d="M1053.37,104.68c83.67,0,124.6,75.37,124.6,140.28s-40.93,140.28-124.6,140.28c-83.67,0-125.2-74.85-125.2-140.28
			S969.7,104.68,1053.37,104.68z M1069.02,374.25c40.33-3.66,54.78-76.42,48.15-135.04c-7.22-59.15-39.13-127.19-79.45-123.53
			c-40.33,3.66-55.98,75.9-48.76,135.04C996.19,310.39,1028.69,377.91,1069.02,374.25z" />
		<path d="M1320.62,365.35c6.62,2.09,7.82,1.57,7.82,6.8c0,4.19-1.81,3.66-7.82,3.66h-110.76c-6.02,0-7.82,0.52-7.82-3.66
			c0-5.23,1.2-4.71,7.82-6.8c14.45-4.19,25.28-10.99,25.28-41.87V183.2c0-30.88-10.84-37.69-25.28-41.87
			c-10.23-3.14-10.23-7.33,0-10.47l85.47-26.17v34.55c13.85-22.51,36.72-34.55,61.4-34.55c84.27,0,110.15,40.83,110.15,121.43v97.36
			c0,30.88,10.83,37.69,25.28,41.87c6.62,2.09,7.82,1.57,7.82,6.8c0,4.19-1.81,3.66-7.82,3.66h-110.76c-6.02,0-7.82,0.52-7.82-3.66
			c0-5.23,1.2-4.71,7.82-6.8c14.45-4.19,25.28-10.99,25.28-41.87v-97.36c0-79.56-11.44-110.97-49.96-110.97
			c-22.87,0-49.36,15.7-61.4,55.48v152.84C1295.34,354.36,1306.18,361.16,1320.62,365.35z" />
	</g>
	<path d="M214.3,193.66c-36.31,10.89-43.47,21.29-50.45,76.37c-0.16,1.25-1.9,1.25-2.06,0c-6.98-55.08-14.15-65.48-50.45-76.37
		c-1-0.3-1-1.78,0-2.08c36.31-10.89,43.47-21.29,50.45-76.37c0.16-1.25,1.9-1.25,2.06,0c6.98,55.08,14.15,65.48,50.45,76.37
		C215.31,191.88,215.31,193.36,214.3,193.66z" fill="#02ffa7"/>
</g>
</svg>
